<svg xmlns="http://www.w3.org/2000/svg" width="26" height="6" viewBox="0 0 5.65 1.3" shape-rendering="geometricPrecision" text-rendering="geometricPrecision" image-rendering="optimizeQuality" fill-rule="evenodd" clip-rule="evenodd"><path d="M.65 0c.36 0 .65.29.65.65 0 .36-.29.65-.65.65C.29 1.3 0 1.01 0 .65 0 .29.29 0 .65 0zM5 0c.36 0 .65.29.65.65 0 .36-.29.65-.65.65-.36 0-.65-.29-.65-.65C4.35.29 4.64 0 5 0zM2.82 0c-.36 0-.65.29-.65.65 0 .36.29.65.65.65.36 0 .66-.29.66-.65 0-.36-.3-.65-.66-.65z" fill="#fff"/></svg>