<svg xmlns="http://www.w3.org/2000/svg" width="33" height="50" viewBox="0 0 1.53 2.31" shape-rendering="geometricPrecision" text-rendering="geometricPrecision" image-rendering="optimizeQuality" fill-rule="evenodd" clip-rule="evenodd"><path d="M.17 1.05l.02.15c.1.22.32.37.57.37.26 0 .48-.15.57-.37l.03-.15H.17zM1.38 0c0 .1-.02.2-.07.29l.06.05c.07.07.07.19 0 .26-.08.08-.2.08-.27.01L1.05.55C1.02.57.98.58.95.59v.08c0 .1-.08.18-.19.18C.66.85.57.77.57.67V.59C.54.58.51.57.48.55L.42.6a.17.17 0 01-.26 0C.09.53.08.41.16.34L.21.28A.644.644 0 01.14 0H1.38zM.32.17h.89c-.02.05-.05.09-.08.13l.14.13c.02.03.02.06 0 .08-.02.02-.05.02-.07 0L1.06.37a.43.43 0 01-.25.1v.2C.81.7.79.72.76.72.73.72.71.7.71.67v-.2a.401.401 0 01-.24-.1L.33.51a.06.06 0 01-.08 0 .06.06 0 010-.08L.39.3A.539.539 0 01.32.17zM.24 1.49l.11.68h.83l.11-.68c-.14.13-.32.21-.53.21-.2 0-.39-.08-.52-.21zM0 .91h1.53l-.23 1.4H.22L0 .91z" fill="#ffa5ba"/></svg>