<svg xmlns="http://www.w3.org/2000/svg" width="50" height="51" viewBox="0 0 2.98 3.04" shape-rendering="geometricPrecision" text-rendering="geometricPrecision" image-rendering="optimizeQuality" fill-rule="evenodd" clip-rule="evenodd"><path d="M.25 1.19l.03.21c.14.32.47.54.84.54s.69-.22.84-.54l.03-.21H.25zm2.03.88c0-.18 0-.27.15-.44.01-.02.02-.01.03-.01l.14.08c0 .01.01.01 0 .03-.09.09-.15.18-.2.35.25-.18.58-.02.58.31 0 .21-.05.31-.15.43-.1.12-.3.16-.47.13-.19.03-.32 0-.42-.06l-.03.15H.33L0 .98h.04C-.02.76.12.52.38.5.28.35.23.27.27.05.27.02.28.02.29.02h.16C.46.02.47.01.46.04.44.16.44.27.48.44.6.16.97.1 1.15.38c.01.02.02.04.03.05.09-.04.21-.04.32.03 0-.18 0-.28.15-.44.02-.03.02-.02.03-.01l.14.08c.01 0 .02.01 0 .02-.09.1-.15.19-.2.35.25-.17.58-.02.58.31 0 .09 0 .15-.02.21h.06l-.17 1.04c.06 0 .14.01.21.05zm-.52.59a.712.712 0 01-.04-.21c-.01-.13.03-.24.11-.32l.06-.3a1.115 1.115 0 01-1.54 0l.16 1h1.22l.03-.17zm.27.1c.08.05.21.07.32.04.29.05.47-.12.47-.41 0-.27-.34-.29-.48-.02-.12-.13-.22-.24-.37-.16-.19.11-.08.46.06.55zM2.01.98c.02-.06.03-.13.03-.2 0-.28-.34-.3-.48-.03-.1-.11-.2-.2-.32-.17.03.08.03.15.01.25 0 .05-.02.1-.05.15h.81zM.99.98c.14-.13.15-.32.02-.51C.86.24.57.41.59.71.43.67.28.64.2.78.17.85.18.91.2.98h.79z" fill="#ffa5ba"/></svg>