<svg xmlns="http://www.w3.org/2000/svg" width="44" height="50" viewBox="0 0 6.82 7.75" shape-rendering="geometricPrecision" text-rendering="geometricPrecision" image-rendering="optimizeQuality" fill-rule="evenodd" clip-rule="evenodd"><path d="M3.67 5.55v1.74h-.52V5.56c.23.07.3.06.52-.01zm.48-.2C5.59 4.6 7.61 2.53 6.51.85 6.09.21 5.28-.1 4.64.03c-.64.13-.87.46-.95.61-.07.14-.16.18-.28.19C3.29.82 3.2.78 3.12.64 3.05.49 2.81.16 2.18.03 1.54-.1.73.21.31.85c-1.09 1.68.95 3.81 2.36 4.52v2.38h1.48v-2.4zm-.74-3.24c-.13 0-.22.11-.23.24v.64c-.01.35-.29.62-.64.62-.34 0-.62-.27-.64-.62v-.64a.26.26 0 00-.25-.24.26.26 0 00-.25.24c-.01.34-.21.63-.55.73.46.77 1.71 1.94 2.54 2.07.87-.18 2.1-1.28 2.59-2.07-.39-.07-.52-.38-.53-.73a.26.26 0 00-.25-.24.26.26 0 00-.25.24v.64c-.01.35-.29.62-.64.62-.34 0-.62-.27-.64-.62v-.64a.27.27 0 00-.26-.24zm-2.76.6c.29-.05.35-.22.36-.4.02-.33.3-.6.64-.6s.63.28.64.63v.64a.25.25 0 00.5-.01v-.63c.01-.35.28-.63.62-.63.35 0 .64.28.66.63l-.01.63a.25.25 0 00.5.01v-.64c.02-.35.3-.63.64-.63s.62.27.64.6c.01.27.05.39.34.4.27-.63.28-1.09-.05-1.6-.29-.44-.89-.73-1.4-.63-.2.04-.53.16-.63.37-.14.28-.37.43-.69.44a.749.749 0 01-.69-.44C2.61.64 2.29.52 2.09.48 1.58.38.97.67.69 1.11c-.33.5-.28 1.06-.04 1.6z" fill="#ffa5ba"/></svg>