<?xml version="1.0" encoding="UTF-8"?>
<!DOCTYPE svg PUBLIC "-//W3C//DTD SVG 1.1//EN" "http://www.w3.org/Graphics/SVG/1.1/DTD/svg11.dtd">
<!-- Creator: CorelDRAW 2018 (64-Bit) -->
<svg xmlns="http://www.w3.org/2000/svg" xml:space="preserve" width="50px" height="50px" version="1.1" style="shape-rendering:geometricPrecision; text-rendering:geometricPrecision; image-rendering:optimizeQuality; fill-rule:evenodd; clip-rule:evenodd"
viewBox="0 0 26.75 26.75"
 xmlns:xlink="http://www.w3.org/1999/xlink">
 <defs>
  <style type="text/css">
   <![CDATA[
    .fil0 {fill:#D41443}
    .fil1 {fill:white}
   ]]>
  </style>
 </defs>
 <g id="Layer_x0020_1">
  <metadata id="CorelCorpID_0Corel-Layer"/>
  <circle class="fil0" cx="13.38" cy="13.38" r="13.38"/>
  <path class="fil1" d="M13.36 4.37c4.36,0 7.9,3.54 7.9,7.9l0 0.77c0.9,0.36 1.52,1.24 1.52,2.23 0,0.99 -0.62,1.87 -1.52,2.23l0 4.17 -2.62 2.75 -0.82 0 0.01 1.47c-0.18,0.1 -1.14,0.31 -1.43,0.39l0 -1.86 -3.04 0 -3.01 0 0 1.87c-0.25,-0.05 -0.51,-0.1 -0.75,-0.17 -0.23,-0.06 -0.45,-0.15 -0.68,-0.23l0 -1.47 -0.84 0 -2.62 -2.75 0 -4.26c-0.82,-0.4 -1.42,-1.22 -1.42,-2.14 0,-0.91 0.6,-1.74 1.42,-2.14l0 -0.86c0,-4.36 3.54,-7.9 7.9,-7.9zm6.49 8.49l0 -0.59c0,-1.17 -0.32,-2.28 -0.86,-3.23 -1.43,1.48 -3.43,2.39 -5.65,2.39 -2.2,0 -4.19,-0.9 -5.61,-2.36 -0.54,0.94 -0.85,2.04 -0.85,3.2l0 0.59 12.97 0zm0 4.82l-2 0 0 1.4c0,1.42 -1.07,2.55 -2.32,2.55 -1.25,0 -2.32,-1.12 -2.32,-2.55l0 -1.4 -6.33 0 0 3.42 1.81 1.91 9.35 0 1.81 -1.91 0 -3.42zm-13.24 -3.4c-0.52,0 -1.15,0.43 -1.15,0.99 0,0.56 0.63,0.99 1.15,0.99l8.02 0 0 2.82c0,0.5 0.34,1.13 0.9,1.13 0.57,0 0.9,-0.63 0.9,-1.13l0 -2.82 3.91 0c0.54,0 1.02,-0.44 1.02,-0.99 0,-0.55 -0.48,-0.99 -1.02,-0.99 -4.58,0 -9.15,0 -13.73,0zm1.96 -6.37c1.17,1.32 2.84,2.1 4.77,2.1 1.9,0 3.61,-0.83 4.79,-2.13 -1.19,-1.29 -2.88,-2.09 -4.77,-2.09 -1.9,0 -3.61,0.82 -4.79,2.12z"/>
 </g>
</svg>
