<svg xmlns="http://www.w3.org/2000/svg" width="199" height="50" viewBox="0 0 1996.84 502.17" shape-rendering="geometricPrecision" text-rendering="geometricPrecision" image-rendering="optimizeQuality" fill-rule="evenodd" clip-rule="evenodd"><path d="M771.49 344.12c0 5.25-70.25 11.66-70.25 0V187.49c0-13.92 70.25-26.12 70.25-4.53v161.16zm75.8 5.29c-43.44-9.93-58.17-47.14-58.17-87.88 0-23.35 6.97-51.25 24.55-67.74 25.76-24.16 77.39-32.17 109.92-19.89 9.74 3.65 15.61 10.19 15.61 20.9 0 9.56-4.73 36.76-17.12 36.76-10.89 0-27.77-8.05-40.54-8.05-17.27 0-21.15 24.86-21.15 37.77 0 12.21 2.75 38.26 19.64 38.26 13.07 0 31.7-10.32 42.05-10.32 11.89 0 23.59 39.69 11.21 51.5-15.32 14.61-67.09 13.01-86 8.69zm237.21.75c-18.27 0-112.87 2.57-123.39-1.76-2.85-1.17-4.28-3.02-4.28-5.54v-159.4c0-4.36 1.98-7.46 5.92-9.31 11.95-5.6 103.38-2.78 122.51-2.78 8.84 0 6.48 53.39-3.03 53.39-10.91 0-29.28-1.09-55.14-3.27v16.87c24.85-1.01 41.05-1.51 48.6-1.51 10.72 0 6.43 32.88 4.16 39.91-1.77 5.45-4.16 8.18-7.18 8.18l-45.58-1.01v16.12c29.21-2.18 49.36-3.27 60.44-3.27 8.78 0 6.55 53.38-3.03 53.38zm152.1-1.89c-21.09 5.02-49.15 6.02-70.51 1.14-42.63-9.75-58.16-46.26-58.16-87.88 0-54.12 33.96-92.67 90.4-92.67 20.47 0 35.17 1.68 44.07 5.04 20.88 7.83 16.59 26.88 11.2 43.81-2.93 9.24-7.18 13.85-12.72 13.85-10.89 0-27.77-8.05-40.53-8.05-17.28 0-21.17 24.86-21.17 37.77 0 12.21 2.76 38.26 19.65 38.26 13.08 0 31.69-10.32 42.05-10.32 11.7 0 16.62 28.39 16.62 37.52 0 13.06-9.31 18.78-20.9 21.53zm109.54-5.41c0 7.41-58.52 8.57-66.1 5.54-2.93-1.17-4.4-3.02-4.4-5.54V180.95c0-4.37 5.49-7.48 16.48-9.32 30.23-5.07 91.62-6.01 120.88 5.28 19.5 7.54 25.81 29.44 25.81 48.48 0 20.64-6.02 42.8-24.42 54.52 19.3 30.38 28.95 49.69 28.95 57.91 0 14.31-72.23 17.77-76.54 5.54l-16.37-51.87-4.29-.25v51.62zm0-90.4c16.5 0 21.15-4.11 21.15-22.67 0-18.7-5.29-21.15-21.15-21.15v43.82zm237.46 97.7h-106.76c-8.23 0-13.77-.58-16.63-1.76-2.85-1.17-4.27-3.02-4.27-5.54v-159.4c0-12.7 18.34-12.09 27.19-12.09h101.23c8.84 0 6.48 53.39-3.02 53.39-10.92 0-29.29-1.09-55.15-3.27v16.87c24.85-1.01 41.05-1.51 48.6-1.51 4.54 0 6.81 5.28 6.81 15.86 0 6.05-.28 32.23-9.83 32.23l-45.58-1.01v16.12c29.22-2.18 49.36-3.27 60.44-3.27 8.63 0 4.71 37.57 3.02 44.32-1.51 6.05-3.52 9.06-6.05 9.06zm95.44-12.84c-.33 4.87-2.89 8.23-7.67 10.08-10.32 3.98-69.38 4.72-69.38-9.33 0-21.08 38.48-127.3 48.1-159.14 2.48-6.47 53.03-7.56 61.07-7.56 14.51 0 22.53 2.53 24.04 7.56 31.73 105.43 47.59 158.98 47.59 160.66 0 15.63-75.26 13.44-76.55 0l-1.76-16.37h-24.18l-1.26 14.1zm20.15-61.94l-3.78-45.34h-5.54l-4.28 45.34h13.6zm96.2 67.48V183.97c0-10.84 40.6-12.6 48.6-12.6 9.99 0 30.88 1.66 34 14.11l17.11 66.47h2.27l16.12-63.45c3.4-13.12 37.63-17.13 48.85-17.13 5.9 0 34.5.26 34.5 9.82v161.67c0 6.04-70.01 13.57-70.01 0 0-13.26 1.43-36.85 4.29-70.75l-15.37 65.71c-1.73 8.69-30.79 8.85-35.63 5.79-4.59-2.89-14.82-62.18-16.75-71.5-3.87 0 2.27 59.83 2.27 70.75 0 8.81-70.25 12.41-70.25 0z" fill="#d41443" fill-rule="nonzero"/><circle cx="251.09" cy="251.09" r="251.08" fill="#d41443"/><path d="M249.06 79.7c81.86 0 148.26 66.41 148.26 148.28v14.34c16.85 6.87 28.47 23.38 28.47 41.95 0 18.55-11.63 35.04-28.47 41.9v78.15l-49.18 51.76H332.7l.12 27.43c-3.34 2.04-21.27 5.96-26.69 7.48l-.12-34.91H192.43v35.05c-4.68-1.02-9.5-1.92-13.94-3.14-4.42-1.21-8.55-2.83-12.75-4.33v-27.58h-15.79l-49.18-51.76v-79.83c-15.54-7.64-26.67-23.06-26.67-40.24 0-17.17 11.13-32.61 26.67-40.24v-16.03c0-81.87 66.42-148.28 148.29-148.28zm121.69 159.24v-10.96c0-22.06-5.86-42.78-16.14-60.62-26.82 27.64-64.38 44.82-105.93 44.82-41.32 0-78.67-16.99-105.46-44.33-10.1 17.73-15.88 38.26-15.88 60.13v10.96h243.41zm0 90.63h-37.42v26.21c0 26.68-20.07 47.8-43.56 47.8-23.49 0-43.56-21.06-43.56-47.8v-26.21H127.34v64.14l34.01 35.8h175.39l34.01-35.8v-64.14zm-248.44-63.94c-9.82 0-21.52 8.13-21.52 18.62 0 10.5 11.71 18.63 21.52 18.63H272.9v52.9c0 9.44 6.37 21.11 16.87 21.11 10.57 0 16.87-11.77 16.87-21.11v-52.9h73.32c10.22 0 19.14-8.26 19.14-18.61 0-10.4-8.88-18.64-19.14-18.64H122.31zm36.75-119.58c21.95 24.92 53.42 39.43 89.62 39.43 35.64 0 67.71-15.46 89.83-40-22.24-24.11-54.08-39.21-89.45-39.21-35.65 0-67.75 15.34-90 39.78z" fill="#fff"/></svg>