<svg xmlns="http://www.w3.org/2000/svg" width="50" height="50" viewBox="0 0 26.75 26.75" shape-rendering="geometricPrecision" text-rendering="geometricPrecision" image-rendering="optimizeQuality" fill-rule="evenodd" clip-rule="evenodd"><circle cx="13.38" cy="13.38" r="13.38" fill="#d41443"/><path d="M13.36 4.37c4.36 0 7.9 3.54 7.9 7.9v.77c.9.36 1.52 1.24 1.52 2.23s-.62 1.87-1.52 2.23v4.17l-2.62 2.75h-.82l.01 1.47c-.18.1-1.14.31-1.43.39v-1.86h-6.05v1.87c-.25-.05-.51-.1-.75-.17-.23-.06-.45-.15-.68-.23v-1.47h-.84l-2.62-2.75v-4.26c-.82-.4-1.42-1.22-1.42-2.14 0-.91.6-1.74 1.42-2.14v-.86c0-4.36 3.54-7.9 7.9-7.9zm6.49 8.49v-.59c0-1.17-.32-2.28-.86-3.23a7.82 7.82 0 01-5.65 2.39c-2.2 0-4.19-.9-5.61-2.36-.54.94-.85 2.04-.85 3.2v.59h12.97zm0 4.82h-2v1.4c0 1.42-1.07 2.55-2.32 2.55-1.25 0-2.32-1.12-2.32-2.55v-1.4H6.88v3.42l1.81 1.91h9.35l1.81-1.91v-3.42zm-13.24-3.4c-.52 0-1.15.43-1.15.99s.63.99 1.15.99h8.02v2.82c0 .5.34 1.13.9 1.13.57 0 .9-.63.9-1.13v-2.82h3.91c.54 0 1.02-.44 1.02-.99s-.48-.99-1.02-.99H6.61zm1.96-6.37c1.17 1.32 2.84 2.1 4.77 2.1 1.9 0 3.61-.83 4.79-2.13a6.454 6.454 0 00-4.77-2.09c-1.9 0-3.61.82-4.79 2.12z" fill="#fff"/></svg>