<svg aria-hidden="true" style="position: absolute; width: 0; height: 0; overflow: hidden;" version="1.1" xmlns="http://www.w3.org/2000/svg" xmlns:xlink="http://www.w3.org/1999/xlink">
<defs>
<symbol id="icon-round-icon" viewBox="0 0 139 32">
<path  d="M15.953 0.047c8.835 0 15.953 7.117 15.953 15.953s-7.117 15.953-15.953 15.953c-8.835 0-15.953-7.117-15.953-15.953s7.117-15.953 15.953-15.953zM122.714 0.047c8.835 0 15.953 7.117 15.953 15.953s-7.117 15.953-15.953 15.953c-8.835 0-15.953-7.117-15.953-15.953s7.117-15.953 15.953-15.953zM69.211 0.047c-8.835 0-15.953 7.117-15.953 15.953s7.117 15.953 15.953 15.953c8.835 0 16.198-7.117 16.198-15.953s-7.363-15.953-16.198-15.953z"></path>
</symbol>
<symbol id="icon-apost" viewBox="0 0 43 32">
<path fill="#e1e1e1" style="fill: var(--color2, #e1e1e1)" d="M32.014 0c1.929 0 3.75 0.52 5.464 1.561s3.107 2.537 4.179 4.488c1.029 1.951 1.543 4.249 1.543 6.894s-0.643 5.225-1.929 7.74c-0.429 0.911-1.2 2.081-2.314 3.512-1.157 1.431-2.229 2.667-3.214 3.707l-4.050 4.098-2.893-4.813c2.014-1.257 3.793-2.818 5.336-4.683 1.543-1.821 2.314-3.491 2.314-5.008 0-0.78-0.171-1.409-0.514-1.886-1.5 1.084-3.171 1.626-5.014 1.626-1.329 0-2.593-0.412-3.793-1.236-1.243-0.78-2.229-1.821-2.957-3.122-0.771-1.258-1.157-2.558-1.157-3.902 0-1.518 0.45-2.97 1.35-4.358 0.857-1.388 1.993-2.515 3.407-3.382 1.371-0.824 2.786-1.236 4.243-1.236zM8.936 0c1.929 0 3.75 0.52 5.464 1.561s3.107 2.537 4.179 4.488c1.029 1.951 1.543 4.249 1.543 6.894 0 1.864-0.236 3.534-0.707 5.008-0.471 1.518-1.286 3.1-2.443 4.748-1.114 1.561-2.164 2.862-3.15 3.902-0.986 1.084-2.7 2.884-5.143 5.398l-2.893-4.813c2.014-1.257 3.793-2.818 5.336-4.683 1.543-1.821 2.314-3.491 2.314-5.008 0-0.78-0.171-1.409-0.514-1.886-1.5 1.084-3.171 1.626-5.014 1.626-1.329 0-2.593-0.412-3.793-1.236-1.243-0.78-2.229-1.821-2.957-3.122-0.771-1.258-1.157-2.558-1.157-3.902 0-1.518 0.429-2.97 1.286-4.358s1.993-2.515 3.407-3.382c1.371-0.824 2.786-1.236 4.243-1.236z"></path>
</symbol>
<symbol id="icon-arrow-1-icon" viewBox="0 0 20 32">
<path fill="#d41443" style="fill: var(--color3, #d41443)" d="M1.249 5.493c-0.55-0.594-0.888-1.392-0.888-2.269s0.337-1.675 0.89-2.271l-0.002 0.002c0.594-0.55 1.392-0.888 2.269-0.888s1.675 0.337 2.271 0.89l-0.002-0.002 12.657 12.657c1.433 1.433 1.433 3.343 0 4.537l-12.657 12.896c-0.594 0.55-1.392 0.888-2.269 0.888s-1.675-0.337-2.271-0.89l0.002 0.002c-0.55-0.594-0.888-1.392-0.888-2.269s0.337-1.675 0.89-2.271l-0.002 0.002 10.507-10.507-10.507-10.507z"></path>
</symbol>
<symbol id="icon-arrow-2-icon" viewBox="0 0 34 32">
<path fill="#d41443" style="fill: var(--color3, #d41443)" d="M15.494 4.914c-1.336-1.069-1.336-3.206 0-4.541s3.473-1.336 4.809 0l13.357 13.357c1.336 1.336 1.336 3.473 0 4.809l-13.357 13.357c-1.336 1.336-3.473 1.336-4.809 0-0.617-0.614-0.999-1.465-0.999-2.404s0.382-1.79 0.999-2.404l7.747-7.747h-19.769c-1.87 0-3.473-1.336-3.473-3.206s1.603-3.473 3.473-3.473h19.769l-7.747-7.747z"></path>
</symbol>
<symbol id="icon-cup-apple-icon" viewBox="0 0 31 32">
<path fill="#ffa5ba" style="fill: var(--color4, #ffa5ba)" d="M2.634 12.526l0.316 2.211c1.474 3.368 4.947 5.684 8.842 5.684s7.263-2.316 8.842-5.684l0.316-2.211h-18.316zM24.002 21.789c0-1.895 0-2.842 1.579-4.632 0.105-0.211 0.211-0.105 0.316-0.105l1.474 0.842c0 0.105 0.105 0.105 0 0.316-0.947 0.947-1.579 1.895-2.105 3.684 2.632-1.895 6.105-0.211 6.105 3.263 0 2.211-0.526 3.263-1.579 4.526s-3.158 1.684-4.947 1.368c-2 0.316-3.368 0-4.421-0.632l-0.316 1.579h-16.632l-3.474-21.684h0.421c-0.632-2.316 0.842-4.842 3.579-5.053-1.053-1.579-1.579-2.421-1.158-4.737 0-0.316 0.105-0.316 0.211-0.316h1.684c0.105 0 0.211-0.105 0.105 0.211-0.211 1.263-0.211 2.421 0.211 4.211 1.263-2.947 5.158-3.579 7.053-0.632 0.105 0.211 0.211 0.421 0.316 0.526 0.947-0.421 2.211-0.421 3.368 0.316 0-1.895 0-2.947 1.579-4.632 0.211-0.316 0.211-0.211 0.316-0.105l1.474 0.842c0.105 0 0.211 0.105 0 0.211-0.947 1.053-1.579 2-2.105 3.684 2.632-1.789 6.105-0.211 6.105 3.263 0 0.947 0 1.579-0.211 2.211h0.632l-1.789 10.947c0.632 0 1.474 0.105 2.211 0.526zM18.528 28c-0.238-0.654-0.39-1.41-0.421-2.196l-0-0.014c-0.105-1.368 0.316-2.526 1.158-3.368l0.632-3.158c-2.103 2.011-4.96 3.248-8.105 3.248s-6.002-1.238-8.11-3.252l0.004 0.004 1.684 10.526h12.842l0.316-1.789zM21.37 29.053c0.842 0.526 2.211 0.737 3.368 0.421 3.053 0.526 4.947-1.263 4.947-4.316 0-2.842-3.579-3.053-5.053-0.211-1.263-1.368-2.316-2.526-3.895-1.684-2 1.158-0.842 4.842 0.632 5.789zM21.16 10.316c0.211-0.632 0.316-1.368 0.316-2.105 0-2.947-3.579-3.158-5.053-0.316-1.053-1.158-2.105-2.105-3.368-1.789 0.316 0.842 0.316 1.579 0.105 2.632 0 0.526-0.211 1.053-0.526 1.579h8.526zM10.423 10.316c1.474-1.368 1.579-3.368 0.211-5.368-1.579-2.421-4.632-0.632-4.421 2.526-1.684-0.421-3.263-0.737-4.105 0.737-0.316 0.737-0.211 1.368 0 2.105h8.316z"></path>
</symbol>
<symbol id="icon-cup-milk-icon" viewBox="0 0 21 32">
<path fill="#ffa5ba" style="fill: var(--color4, #ffa5ba)" d="M2.318 14.545l0.277 2.078c1.385 3.048 4.433 5.126 7.896 5.126 3.602 0 6.649-2.078 7.896-5.126l0.416-2.078h-16.485zM19.079 0c0 1.385-0.277 2.771-0.97 4.017l0.831 0.693c0.97 0.97 0.97 2.632 0 3.602-1.108 1.108-2.771 1.108-3.74 0.139l-0.693-0.831c-0.416 0.277-0.97 0.416-1.385 0.554v1.108c0 1.385-1.108 2.494-2.632 2.494-1.385 0-2.632-1.108-2.632-2.494v-1.108c-0.416-0.139-0.831-0.277-1.247-0.554l-0.831 0.693c-0.435 0.514-1.080 0.837-1.801 0.837s-1.366-0.324-1.798-0.834l-0.003-0.003c-0.97-0.97-1.108-2.632 0-3.602l0.693-0.831c-0.587-1.128-0.942-2.459-0.97-3.87l-0-0.009h17.177zM4.396 2.355h12.329c-0.277 0.693-0.693 1.247-1.108 1.801l1.939 1.801c0.277 0.416 0.277 0.831 0 1.108s-0.693 0.277-0.97 0l-1.939-1.939c-0.936 0.791-2.133 1.3-3.446 1.384l-0.017 0.001v2.771c0 0.416-0.277 0.693-0.693 0.693s-0.693-0.277-0.693-0.693v-2.771c-1.285-0.086-2.437-0.596-3.33-1.39l0.006 0.005-1.939 1.939c-0.146 0.131-0.341 0.212-0.554 0.212s-0.408-0.080-0.555-0.212l0.001 0.001c-0.131-0.146-0.212-0.341-0.212-0.554s0.080-0.408 0.212-0.555l-0.001 0.001 1.939-1.801c-0.383-0.519-0.71-1.113-0.953-1.75l-0.017-0.051zM3.287 20.641l1.524 9.42h11.498l1.524-9.42c-1.939 1.801-4.433 2.909-7.342 2.909-2.771 0-5.403-1.108-7.203-2.909zM-0.037 12.606h21.195l-3.186 19.394h-14.961l-3.048-19.394z"></path>
</symbol>
<symbol id="icon-eskimo-icon" viewBox="0 0 28 32">
<path fill="#ffa5ba" style="fill: var(--color4, #ffa5ba)" d="M15.154 22.916c-0.908 0.289-1.197 0.33-2.147 0.041v7.143h2.147v-7.185zM17.135 22.090v9.91h-6.111v-9.827c-5.822-2.932-14.245-11.726-9.745-18.663 1.734-2.643 5.079-3.923 7.721-3.386 2.601 0.537 3.592 1.899 3.881 2.519 0.33 0.578 0.702 0.743 1.197 0.785 0.495-0.041 0.867-0.206 1.156-0.785 0.33-0.619 1.28-1.982 3.923-2.519s5.987 0.743 7.721 3.386c4.542 6.937-3.799 15.484-9.745 18.581zM14.080 8.712c-0.537 0-0.908 0.454-0.95 0.991v2.643c-0.041 1.445-1.197 2.56-2.643 2.56-1.404 0-2.56-1.115-2.643-2.56v-2.643c-0.043-0.543-0.485-0.971-1.030-0.991l-0.002-0c-0.548 0.020-0.989 0.448-1.032 0.987l-0 0.004c-0.041 1.404-0.867 2.601-2.271 3.014 1.899 3.179 7.061 8.010 10.488 8.547 3.592-0.743 8.671-5.285 10.694-8.547-1.61-0.289-2.147-1.569-2.188-3.014-0.043-0.543-0.485-0.971-1.030-0.991l-0.002-0c-0.548 0.020-0.989 0.448-1.032 0.987l-0 0.004v2.643c-0.041 1.445-1.197 2.56-2.643 2.56-1.404 0-2.56-1.115-2.643-2.56v-2.643c-0.063-0.549-0.516-0.973-1.072-0.991l-0.002-0zM2.684 11.19c1.197-0.206 1.445-0.908 1.486-1.652 0.083-1.363 1.239-2.477 2.643-2.477s2.601 1.156 2.643 2.601v2.643c0.012 0.561 0.469 1.012 1.032 1.012 0.57 0 1.032-0.462 1.032-1.032 0-0.007-0-0.014-0-0.022l0 0.001v-2.601c0.041-1.445 1.156-2.601 2.56-2.601 1.445 0 2.643 1.156 2.725 2.601l-0.041 2.601c-0 0.006-0 0.013-0 0.021 0 0.57 0.462 1.032 1.032 1.032 0.563 0 1.021-0.451 1.032-1.011l0-0.001v-2.643c0.083-1.445 1.239-2.601 2.643-2.601s2.56 1.115 2.643 2.477c0.041 1.115 0.206 1.61 1.404 1.652 1.115-2.601 1.156-4.501-0.206-6.606-1.197-1.817-3.675-3.014-5.781-2.601-0.826 0.165-2.188 0.661-2.601 1.528-0.578 1.156-1.528 1.775-2.849 1.817-0.009 0-0.021 0-0.032 0-1.246 0-2.319-0.736-2.809-1.798l-0.008-0.019c-0.454-0.867-1.775-1.363-2.601-1.528-2.106-0.413-4.625 0.785-5.781 2.601-1.363 2.065-1.156 4.377-0.165 6.606z"></path>
</symbol>
<symbol id="icon-icecram-icon" viewBox="0 0 32 32">
<path fill="#d41443" style="fill: var(--color3, #d41443)" d="M32.012 16.006c0 8.84-7.166 16.006-16.006 16.006s-16.006-7.166-16.006-16.006c0-8.84 7.166-16.006 16.006-16.006s16.006 7.166 16.006 16.006z"></path>
<path fill="#fff" style="fill: var(--color1, #fff)" d="M15.982 5.228c5.216 0 9.45 4.235 9.45 9.45v0.921c1.077 0.431 1.818 1.483 1.818 2.668s-0.742 2.237-1.818 2.668v4.988l-3.134 3.29h-0.981l0.012 1.759c-0.215 0.12-1.364 0.371-1.711 0.467v-2.225h-7.237v2.237c-0.299-0.060-0.61-0.12-0.897-0.203-0.275-0.072-0.538-0.179-0.813-0.275v-1.759h-1.005l-3.134-3.29v-5.096c-0.981-0.479-1.699-1.459-1.699-2.56 0-1.089 0.718-2.082 1.699-2.56v-1.029c0-5.216 4.235-9.45 9.45-9.45zM23.746 15.384v-0.706c0-1.4-0.383-2.727-1.029-3.864-1.711 1.77-4.103 2.859-6.759 2.859-2.632 0-5.012-1.077-6.711-2.823-0.646 1.124-1.017 2.44-1.017 3.828v0.706h15.516zM23.746 21.15h-2.393v1.675c0 1.699-1.28 3.050-2.775 3.050s-2.775-1.34-2.775-3.050v-1.675h-7.572v4.091l2.165 2.285h11.185l2.165-2.285v-4.091zM7.907 17.083c-0.622 0-1.376 0.514-1.376 1.184s0.754 1.184 1.376 1.184h9.594v3.373c0 0.598 0.407 1.352 1.077 1.352 0.682 0 1.077-0.754 1.077-1.352v-3.373h4.677c0.646 0 1.22-0.526 1.22-1.184s-0.574-1.184-1.22-1.184c-5.479 0-10.946 0-16.425 0zM10.252 9.462c1.4 1.579 3.397 2.512 5.706 2.512 2.273 0 4.319-0.993 5.73-2.548-1.424-1.543-3.445-2.5-5.706-2.5-2.273 0-4.319 0.981-5.73 2.536z"></path>
</symbol>
<symbol id="icon-logo-fool-icon" viewBox="0 0 127 32">
<path fill="#d41443" style="fill: var(--color3, #d41443)" d="M49.206 21.934c0 0.335-4.481 0.744-4.481 0v-9.99c0-0.888 4.481-1.666 4.481-0.289v10.279zM54.041 22.271c-2.771-0.633-3.71-3.007-3.71-5.605 0-1.489 0.445-3.269 1.566-4.32 1.643-1.541 4.936-2.052 7.011-1.269 0.621 0.233 0.996 0.65 0.996 1.333 0 0.61-0.302 2.345-1.092 2.345-0.695 0-1.771-0.513-2.586-0.513-1.102 0-1.349 1.586-1.349 2.409 0 0.779 0.175 2.44 1.253 2.44 0.834 0 2.022-0.658 2.682-0.658 0.758 0 1.505 2.531 0.715 3.285-0.977 0.932-4.279 0.83-5.485 0.554zM69.17 22.319c-1.165 0-7.199 0.164-7.87-0.112-0.182-0.075-0.273-0.193-0.273-0.353v-10.167c0-0.278 0.126-0.476 0.378-0.594 0.762-0.357 6.594-0.177 7.814-0.177 0.564 0 0.413 3.405-0.193 3.405-0.696 0-1.868-0.070-3.517-0.209v1.076c1.585-0.064 2.618-0.096 3.1-0.096 0.684 0 0.41 2.097 0.265 2.546-0.113 0.348-0.265 0.522-0.458 0.522l-2.907-0.064v1.028c1.863-0.139 3.148-0.209 3.855-0.209 0.56 0 0.418 3.405-0.193 3.405zM78.871 22.199c-1.345 0.32-3.135 0.384-4.497 0.073-2.719-0.622-3.71-2.951-3.71-5.605 0-3.452 2.166-5.911 5.766-5.911 1.306 0 2.243 0.107 2.811 0.321 1.332 0.499 1.058 1.714 0.714 2.794-0.187 0.589-0.458 0.883-0.811 0.883-0.695 0-1.771-0.513-2.585-0.513-1.102 0-1.35 1.586-1.35 2.409 0 0.779 0.176 2.44 1.253 2.44 0.834 0 2.021-0.658 2.682-0.658 0.746 0 1.060 1.811 1.060 2.393 0 0.833-0.594 1.198-1.333 1.373zM85.858 21.853c0 0.473-3.732 0.547-4.216 0.353-0.187-0.075-0.281-0.193-0.281-0.353v-10.327c0-0.279 0.35-0.477 1.051-0.594 1.928-0.323 5.844-0.383 7.71 0.337 1.244 0.481 1.646 1.878 1.646 3.092 0 1.316-0.384 2.73-1.558 3.477 1.231 1.938 1.846 3.169 1.846 3.694 0 0.913-4.607 1.133-4.882 0.353l-1.044-3.308-0.274-0.016v3.292zM85.858 16.088c1.052 0 1.349-0.262 1.349-1.446 0-1.193-0.337-1.349-1.349-1.349v2.795zM101.003 22.319h-6.809c-0.525 0-0.878-0.037-1.061-0.112s-0.272-0.193-0.272-0.353v-10.167c0-0.81 1.17-0.771 1.734-0.771h6.457c0.564 0 0.413 3.405-0.193 3.405-0.697 0-1.868-0.070-3.517-0.209v1.076c1.585-0.064 2.618-0.096 3.1-0.096 0.29 0 0.434 0.337 0.434 1.012 0 0.386-0.018 2.056-0.627 2.056l-2.907-0.064v1.028c1.864-0.139 3.148-0.209 3.855-0.209 0.55 0 0.3 2.396 0.193 2.827-0.096 0.386-0.225 0.578-0.386 0.578zM107.090 21.5c-0.021 0.311-0.184 0.525-0.489 0.643-0.658 0.254-4.425 0.301-4.425-0.595 0-1.345 2.454-8.119 3.068-10.15 0.158-0.413 3.382-0.482 3.895-0.482 0.925 0 1.437 0.161 1.533 0.482 2.024 6.724 3.035 10.14 3.035 10.247 0 0.997-4.8 0.857-4.882 0l-0.112-1.044h-1.542l-0.080 0.899zM108.376 17.55l-0.241-2.892h-0.353l-0.273 2.892h0.867zM114.511 21.853v-10.134c0-0.691 2.59-0.804 3.1-0.804 0.637 0 1.97 0.106 2.169 0.9l1.091 4.24h0.145l1.028-4.047c0.217-0.837 2.4-1.093 3.116-1.093 0.376 0 2.2 0.017 2.2 0.626v10.311c0 0.385-4.465 0.866-4.465 0 0-0.846 0.091-2.35 0.274-4.512l-0.98 4.191c-0.11 0.554-1.964 0.564-2.272 0.369-0.293-0.184-0.945-3.966-1.068-4.56-0.247 0 0.145 3.816 0.145 4.512 0 0.562-4.481 0.792-4.481 0z"></path>
<path fill="#d41443" style="fill: var(--color3, #d41443)" d="M32.029 16c0 8.844-7.17 16.014-16.014 16.014s-16.014-7.17-16.014-16.014c0-8.844 7.17-16.014 16.014-16.014s16.014 7.17 16.014 16.014z"></path>
<path fill="#fff" style="fill: var(--color1, #fff)" d="M15.885 5.069c5.221 0 9.456 4.236 9.456 9.457v0.915c1.075 0.438 1.816 1.491 1.816 2.676 0 1.183-0.742 2.235-1.816 2.672v4.984l-3.137 3.301h-0.985l0.008 1.75c-0.213 0.13-1.357 0.38-1.702 0.477l-0.008-2.227h-7.244v2.236c-0.299-0.065-0.606-0.122-0.889-0.2-0.282-0.077-0.545-0.18-0.813-0.276v-1.759h-1.007l-3.137-3.301v-5.092c-0.991-0.487-1.701-1.471-1.701-2.567s0.71-2.080 1.701-2.567v-1.022c0-5.222 4.236-9.457 9.458-9.457zM23.647 15.225v-0.699c0-1.407-0.374-2.729-1.029-3.866-1.711 1.763-4.106 2.859-6.756 2.859-2.635 0-5.018-1.084-6.726-2.827-0.644 1.131-1.013 2.44-1.013 3.835v0.699h15.525zM23.647 21.006h-2.387v1.672c0 1.702-1.28 3.049-2.778 3.049s-2.778-1.343-2.778-3.049v-1.672h-7.582v4.091l2.169 2.283h11.187l2.169-2.283v-4.091zM7.801 16.928c-0.626 0-1.373 0.519-1.373 1.188s0.747 1.188 1.373 1.188h9.605v3.374c0 0.602 0.406 1.346 1.076 1.346 0.674 0 1.076-0.751 1.076-1.346v-3.374h4.676c0.652 0 1.221-0.527 1.221-1.187 0-0.663-0.566-1.189-1.221-1.189h-16.433zM10.145 9.301c1.4 1.589 3.407 2.515 5.716 2.515 2.273 0 4.319-0.986 5.729-2.551-1.419-1.538-3.449-2.501-5.705-2.501-2.274 0-4.321 0.978-5.74 2.537z"></path>
</symbol>
<symbol id="icon-logo-icon" viewBox="0 0 32 32">
<path fill="#d41443" style="fill: var(--color3, #d41443)" d="M32.012 16.006c0 8.84-7.166 16.006-16.006 16.006s-16.006-7.166-16.006-16.006c0-8.84 7.166-16.006 16.006-16.006s16.006 7.166 16.006 16.006z"></path>
<path fill="#fff" style="fill: var(--color1, #fff)" d="M15.982 5.228c5.216 0 9.45 4.235 9.45 9.45v0.921c1.077 0.431 1.818 1.483 1.818 2.668s-0.742 2.237-1.818 2.668v4.988l-3.134 3.29h-0.981l0.012 1.759c-0.215 0.12-1.364 0.371-1.711 0.467v-2.225h-7.237v2.237c-0.299-0.060-0.61-0.12-0.897-0.203-0.275-0.072-0.538-0.179-0.813-0.275v-1.759h-1.005l-3.134-3.29v-5.096c-0.981-0.479-1.699-1.459-1.699-2.56 0-1.089 0.718-2.082 1.699-2.56v-1.029c0-5.216 4.235-9.45 9.45-9.45zM23.746 15.384v-0.706c0-1.4-0.383-2.727-1.029-3.864-1.704 1.764-4.090 2.859-6.732 2.859-0.009 0-0.019 0-0.028-0h0.001c-2.632 0-5.012-1.077-6.711-2.823-0.646 1.124-1.017 2.44-1.017 3.828v0.706h15.515zM23.746 21.15h-2.393v1.675c0 1.699-1.28 3.050-2.775 3.050s-2.775-1.34-2.775-3.050v-1.675h-7.572v4.091l2.165 2.285h11.185l2.165-2.285v-4.091zM7.907 17.083c-0.622 0-1.376 0.514-1.376 1.184s0.754 1.184 1.376 1.184h9.594v3.373c0 0.598 0.407 1.352 1.077 1.352 0.682 0 1.077-0.754 1.077-1.352v-3.373h4.677c0.646 0 1.22-0.526 1.22-1.184s-0.574-1.184-1.22-1.184h-16.425zM10.252 9.462c1.4 1.579 3.397 2.512 5.706 2.512 2.273 0 4.319-0.993 5.73-2.548-1.416-1.539-3.44-2.5-5.688-2.5-0.006 0-0.013 0-0.019 0h0.001c-2.273 0-4.319 0.981-5.73 2.536z"></path>
</symbol>
<symbol id="icon-telegram" viewBox="0 0 44 32">
<path fill="#fff" style="fill: var(--color1, #fff)" d="M17.343 21.048l-0.675 8.86c0.966 0 1.384-0.387 1.885-0.852l4.527-4.038 9.381 6.412c1.72 0.895 2.933 0.424 3.397-1.477l6.157-26.929 0.002-0.002c0.546-2.374-0.92-3.302-2.596-2.72l-36.194 12.933c-2.47 0.895-2.433 2.18-0.42 2.762l9.253 2.686 21.494-12.552c1.011-0.625 1.931-0.279 1.175 0.346l-17.386 14.57z"></path>
</symbol>
<symbol id="icon-vector" viewBox="0 0 32 32">
<path fill="#fff" style="fill: var(--color1, #fff)" d="M16 0c-8.788 0-16 7.212-16 16 0 7.499 5.262 14.312 12.25 16v-5.293c-0.692 0.152-1.33 0.156-2.034-0.052-0.946-0.279-1.714-0.909-2.284-1.869-0.364-0.613-1.008-1.278-1.68-1.23l-0.165-1.868c1.453-0.124 2.711 0.886 3.457 2.14 0.332 0.558 0.713 0.884 1.203 1.029 0.473 0.14 0.982 0.072 1.574-0.137 0.149-1.186 0.692-1.63 1.102-2.255v-0.001c-4.167-0.622-5.828-2.832-6.488-4.578-0.874-2.317-0.405-5.212 1.14-7.041 0.030-0.036 0.084-0.129 0.063-0.194-0.708-2.139 0.155-3.909 0.187-4.097 0.817 0.242 0.95-0.243 3.551 1.337l0.449 0.27c0.188 0.112 0.129 0.048 0.317 0.034 1.086-0.295 2.23-0.458 3.358-0.472 1.136 0.015 2.273 0.178 3.404 0.484l0.145 0.015c-0.013-0.002 0.040-0.009 0.127-0.062 3.248-1.968 3.132-1.324 4.003-1.608 0.032 0.188 0.883 1.987 0.182 4.099-0.095 0.291 2.816 2.956 1.203 7.235-0.659 1.746-2.32 3.957-6.487 4.578v0.001c0.534 0.814 1.176 1.247 1.173 2.927v6.608c6.988-1.688 12.25-8.501 12.25-16 0-8.788-7.212-16-16-16v0z"></path>
</symbol>
</defs>
</svg>
